<!-- Pokeball icon by Arthur Shlain from Usefulicons.com -->
<svg xmlns="http://www.w3.org/2000/svg" xml:space="preserve" version="1.1" viewBox="0 0 100 100">
  <path d="M50,10C27.909,10,10,27.909,10,50C10,72.056,27.944,90,50,90S90,72.056,90,50C90,27.909,72.091,10,50,10ZM50,85C30.701,85,15,69.299,15,50L35,50C35,41.716,41.716,35,50,35S65,41.716,65,50L85,50C85,69.299,69.299,85,50,85Z"/>
  <path d="M50,40C44.477,40,40,44.477,40,50C40,55.523,44.477,60,50,60S60,55.523,60,50C60,44.477,55.523,40,50,40ZM50,55C47.239,55,45,52.761,45,50S47.239,45,50,45S55,47.239,55,50S52.761,55,50,55Z"/>
</svg>
